<?xml version="1.0" encoding="UTF-8"?>
<svg id="b" data-name="Layer 5" xmlns="http://www.w3.org/2000/svg" viewBox="0 0 455.1 455.1">
  <path d="M386.6,93.73c-46.18,3.56-100.49,45.22-125.37,69.55-.71-.95-1.51-1.82-2.36-2.64,6.35-5.69,11.83-12.65,15.22-20.68,4.63-10.96,6.08-23.15,5.49-35.07-.22-4.44-6.74-4.45-6.52,0,.53,10.63-.48,21.76-4.6,31.58-3.2,7.64-8.42,14.3-14.54,19.6,2.34-12.26,5.56-25.02,6.79-27.28,6.5-12.05,4.51-23.19-3.97-33.37-6.84-8.21-10.21-13.58-3.4-18.06,9.55-6.29-.8-23.48-3.33-23.48s8.08,23.41-14.62,23.08c-.86-.43-7.85,2.16-7.85,2.16,0,0-6.99-2.59-7.85-2.16-22.69.33-13.09-23.08-15.62-23.08s-11.88,17.19-2.33,23.48c6.81,4.49,3.44,9.85-3.4,18.06-8.48,10.18-10.47,21.32-3.97,33.37,1.22,2.27,4.45,15.03,6.79,27.28-6.12-5.29-11.33-11.96-14.54-19.6-4.12-9.82-5.12-20.95-4.6-31.58.22-4.45-6.3-4.44-6.52,0-.59,11.92.86,24.12,5.49,35.07,3.39,8.03,8.87,14.99,15.22,20.68-.85.83-1.65,1.69-2.36,2.64-24.88-24.34-79.19-66-125.37-69.55-20.16-1.55.15,53.46,7.61,65.63,8.4,13.7,45.46,19.15,78.39,21.19-26.54,2.17-55.61,9.89-67.4,33.89,0,0-6.47,9.15,1.88,7.77,7.99-1.32,16.15,1.3,24.19,1.98,8.09.69,16.22.97,24.34.86,7.43-.1,15.32-.06,22.46-2.54.66-.23,1.31-.51,1.95-.78,5.57-1.32,10.92-2.97,15.88-4.77-.25.31-.5.62-.75.93-4.83,6.08-10.53,11.65-14.25,18.63-4.12,7.75-4.49,16.51-5.85,25.09-1.28,8.1-3.24,16.26-7.28,23.34-3.89,6.82-9.76,12.45-17.12,14.54-4.05,1.15-2.33,7.83,1.73,6.67,14.5-4.13,23.23-18.42,26.99-33.01,2.1-8.15,2.44-16.58,4.21-24.77,1.77-8.14,6.47-14.05,11.63-20.1,2.8-3.29,5.37-6.83,8.28-10.01,2.5-2.73,5.43-5.06,8.97-5.47.09,1.3.1,2.61-.06,3.9-10.9,15.26-15.56,31.89-16.46,51.83.47,6.2.85,13.1,1.53,19.97,2.38,24.14,8.19,47.25,21.99,66.96,9.53,13.62,23.42,24.17,24.9,43.02.1,1.24,1.29,2.74,1.29,2.74,0,0,1.19-1.49,1.29-2.74,1.47-18.85,15.36-29.4,24.9-43.02,13.8-19.71,19.61-42.81,21.99-66.96.68-6.87,1.06-13.77,1.53-19.97-.91-19.94-5.56-36.57-16.46-51.83-.16-1.29-.15-2.6-.06-3.9,3.54.41,6.48,2.74,8.98,5.47,2.91,3.18,5.48,6.72,8.28,10.01,5.16,6.05,9.86,11.96,11.63,20.1,1.78,8.2,2.11,16.63,4.21,24.77,3.76,14.6,12.49,28.89,26.99,33.01,4.07,1.16,5.78-5.52,1.73-6.67-7.36-2.09-13.23-7.72-17.12-14.54-4.04-7.09-6-15.24-7.28-23.34-1.36-8.57-1.72-17.34-5.85-25.09-3.72-6.98-9.42-12.55-14.25-18.63-.25-.31-.5-.62-.75-.93,4.97,1.81,10.31,3.45,15.88,4.77.65.27,1.29.55,1.95.78,7.14,2.48,15.03,2.44,22.46,2.54,8.12.11,16.24-.17,24.34-.86,8.04-.68,16.19-3.31,24.19-1.98,8.34,1.38,1.88-7.77,1.88-7.77-11.79-24-40.86-31.73-67.4-33.89,32.93-2.04,69.99-7.49,78.39-21.19,7.46-12.17,27.77-67.18,7.61-65.63ZM227.28,154.34c.09,0,.18.01.27.01.09,0,.18-.01.27-.01,14.35,0,25.99,12.35,25.99,27.58s-11.63,27.58-25.99,27.58c-.09,0-.18-.01-.27-.01-.09,0-.18.01-.27.01-14.35,0-25.99-12.35-25.99-27.58s11.63-27.58,25.99-27.58ZM252.73,226.91c-.74,2.17-3.05,2.23-4.88,2.26-6.76.12-13.53.05-20.29.03h-.01c-6.77.01-13.53.09-20.29-.03-1.83-.03-4.14-.09-4.88-2.26-.74-2.18,1.17-3.67,2.36-5.14,3.7-4.59,7.68-7.73,14.05-5.28,2.84,1.09,5.8,1.66,8.76,1.68,2.96-.02,5.93-.59,8.76-1.68,6.37-2.45,10.35.69,14.05,5.28,1.19,1.48,3.11,2.96,2.36,5.14ZM232.18,367.74c-1.56,1.55-3.1,2.33-4.63,2.42-1.53-.1-3.06-.87-4.63-2.42-3.48-3.46-10.28-7.21-8.57-11.18,2.08-4.8,9.31-.3,13.01-1.71.07,0,.12,0,.19,0,.07,0,.12,0,.19,0,3.7,1.41,10.93-3.09,13.01,1.71,1.71,3.96-5.09,7.72-8.57,11.18ZM257.55,325.67c-1.45,4.84-3.91,7.69-8.97,8.47-7.01,1.09-14.02.6-21.03.96-7.01-.36-14.02.13-21.03-.96-5.06-.79-7.52-3.63-8.97-8.47-1.56-5.22-.5-7.46,5.07-7.04,8.29.62,16.61,1.06,24.92,1.25,8.31-.19,16.63-.63,24.92-1.25,5.57-.41,6.63,1.82,5.07,7.04ZM256.32,298.65c-9.57.9-19.12,2.34-28.77,1.56-9.65.78-19.2-.66-28.77-1.56-6.37-.6-9.82-6.53-7.92-12.88.74-2.46,2.2-3,4.31-2.75,10.79,1.29,21.58,1.89,32.38,1.87,10.79.01,21.59-.59,32.38-1.87,2.11-.25,3.57.28,4.31,2.75,1.9,6.35-1.54,12.28-7.92,12.88ZM263.94,257.01c.85,5.92-3.31,6.56-7.16,6.83-9.7.71-19.44,1.14-29.16,1.7-.03,0-.05,0-.08,0-.03,0-.05,0-.08,0-9.72-.55-19.45-.99-29.16-1.7-3.85-.28-8.01-.92-7.16-6.83.73-5.21,1.29-10.42,8.61-9.33,9.25,1.37,18.51,2.08,27.78,2.1,9.27-.02,18.54-.73,27.78-2.1,7.32-1.09,7.88,4.12,8.61,9.33Z" style="fill: #fff;"/>
  <polygon points="216.97 185.39 207.07 175.15 220.77 173.04 227.15 159.33 227.55 158.28 227.95 159.33 234.33 173.04 248.02 175.15 238.13 185.39 240.52 200.2 227.95 193.19 227.55 192.93 227.15 193.19 214.58 200.2 216.97 185.39" style="fill: #fff;"/>
  <polygon points="217.48 196.13 227.15 190.73 227.55 190.48 227.95 190.73 237.62 196.13 235.77 184.7 243.59 176.61 232.78 174.95 227.95 164.55 227.55 163.5 227.15 164.55 222.32 174.95 211.51 176.61 219.33 184.7 217.48 196.13" style="fill: #ec008c;"/>
</svg>