<?xml version="1.0" encoding="UTF-8"?>
<svg xmlns="http://www.w3.org/2000/svg" viewBox="0 0 445.51 455.86">
  <g style="isolation: isolate;">
    <g id="e" data-name="Layer 6">
      <g>
        <g style="mix-blend-mode: color;">
          <path d="M401.42,78.55c-51.73,3.94-112.57,50.16-140.44,77.15-.79-1.06-1.69-2.02-2.64-2.93,7.12-6.31,13.25-14.03,17.05-22.94,5.18-12.15,6.81-25.68,6.15-38.91-.25-4.92-7.55-4.94-7.31,0,.59,11.79-.53,24.13-5.15,35.03-3.59,8.47-9.43,15.87-16.28,21.74,2.62-13.6,6.23-27.75,7.6-30.26,7.29-13.37,5.05-25.72-4.44-37.01-7.66-9.11-11.43-15.06-3.81-20.04,10.7-6.98-.9-26.05-3.73-26.05s9.05,25.97-16.37,25.6c-.96-.48-8.8,2.39-8.8,2.39,0,0-7.84-2.87-8.8-2.39-25.42.37-14.66-25.6-17.49-25.6s-13.3,19.07-2.61,26.05c7.63,4.98,3.85,10.93-3.81,20.04-9.5,11.29-11.73,23.65-4.44,37.01,1.37,2.51,4.98,16.67,7.6,30.26-6.85-5.87-12.7-13.27-16.28-21.74-4.61-10.9-5.74-23.24-5.15-35.03.25-4.94-7.06-4.92-7.31,0-.66,13.22.96,26.75,6.15,38.91,3.8,8.91,9.94,16.62,17.05,22.94-.95.92-1.85,1.88-2.64,2.93-27.87-27-88.71-73.21-140.44-77.15-22.59-1.72.16,59.3,8.52,72.8,9.41,15.19,50.93,21.25,87.81,23.5-29.73,2.41-62.3,10.97-75.5,37.6,0,0-7.24,10.15,2.1,8.62,8.95-1.47,18.09,1.44,27.1,2.2,9.07.76,18.17,1.08,27.27.95,8.32-.11,17.16-.07,25.16-2.82.74-.25,1.46-.56,2.19-.87,6.24-1.47,12.23-3.29,17.79-5.29-.28.34-.56.69-.84,1.03-5.41,6.75-11.8,12.92-15.96,20.67-4.62,8.59-5.03,18.32-6.55,27.83-1.43,8.99-3.63,18.03-8.16,25.89-4.36,7.57-10.93,13.81-19.18,16.13-4.54,1.28-2.61,8.69,1.94,7.4,16.25-4.58,26.02-20.43,30.24-36.62,2.35-9.04,2.73-18.39,4.72-27.48,1.98-9.03,7.24-15.58,13.03-22.29,3.14-3.65,6.02-7.57,9.28-11.1,2.8-3.03,6.08-5.61,10.05-6.06.1,1.44.11,2.89-.07,4.33-12.21,16.93-17.43,35.37-18.44,57.49.52,6.88.95,14.53,1.71,22.15,2.66,26.78,9.18,52.41,24.63,74.27,10.68,15.11,26.24,26.81,27.89,47.72.11,1.38,1.44,3.04,1.44,3.04,0,0,1.33-1.66,1.44-3.04,1.65-20.91,17.21-32.61,27.89-47.72,15.45-21.86,21.97-47.49,24.63-74.27.76-7.62,1.19-15.28,1.71-22.15-1.02-22.12-6.23-40.57-18.44-57.49-.18-1.44-.17-2.88-.07-4.33,3.97.45,7.25,3.03,10.05,6.06,3.26,3.53,6.14,7.45,9.28,11.1,5.78,6.71,11.05,13.26,13.03,22.29,1.99,9.09,2.37,18.45,4.72,27.48,4.21,16.19,13.99,32.04,30.24,36.62,4.55,1.28,6.48-6.13,1.94-7.4-8.25-2.32-14.82-8.57-19.18-16.13-4.53-7.86-6.72-16.91-8.16-25.89-1.52-9.51-1.93-19.23-6.55-27.83-4.17-7.75-10.55-13.92-15.96-20.67-.28-.34-.56-.69-.84-1.03,5.56,2,11.55,3.83,17.79,5.29.72.3,1.45.61,2.19.87,8,2.75,16.83,2.7,25.16,2.82,9.1.13,18.2-.19,27.27-.95,9.01-.76,18.14-3.67,27.1-2.2,9.35,1.53,2.1-8.62,2.1-8.62-13.21-26.62-45.77-35.19-75.5-37.6,36.89-2.26,78.4-8.31,87.81-23.5,8.36-13.49,31.11-74.52,8.52-72.8ZM222.96,145.79c.1,0,.2.01.3.02.1,0,.2-.02.3-.02,16.08,0,29.11,13.69,29.11,30.59s-13.03,30.59-29.11,30.59c-.1,0-.2-.01-.3-.02-.1,0-.2.02-.3.02-16.08,0-29.11-13.69-29.11-30.59s13.03-30.59,29.11-30.59ZM251.46,226.29c-.83,2.41-3.42,2.47-5.47,2.51-7.58.13-15.15.05-22.73.04h-.01c-7.58.02-15.16.1-22.73-.04-2.05-.04-4.64-.1-5.47-2.51-.83-2.42,1.32-4.07,2.65-5.7,4.14-5.09,8.61-8.58,15.74-5.86,3.18,1.21,6.5,1.84,9.82,1.86,3.32-.02,6.64-.65,9.82-1.86,7.13-2.71,11.6.77,15.74,5.86,1.33,1.64,3.48,3.28,2.65,5.7ZM228.44,382.49c-1.75,1.72-3.47,2.58-5.18,2.69-1.71-.11-3.43-.97-5.18-2.69-3.9-3.84-11.52-8-9.6-12.4,2.33-5.32,10.43-.33,14.57-1.9.08,0,.14,0,.21,0,.07,0,.14,0,.21,0,4.14,1.56,12.25-3.43,14.57,1.9,1.92,4.39-5.7,8.56-9.6,12.4ZM256.86,335.83c-1.62,5.37-4.38,8.53-10.04,9.4-7.86,1.21-15.71.67-23.56,1.07-7.85-.4-15.7.15-23.56-1.07-5.66-.87-8.42-4.03-10.04-9.4-1.75-5.79-.56-8.27,5.68-7.81,9.29.68,18.61,1.17,27.92,1.38,9.31-.21,18.63-.7,27.92-1.38,6.24-.46,7.43,2.02,5.68,7.81ZM255.49,305.86c-10.72,1-21.42,2.6-32.23,1.73-10.81.87-21.51-.73-32.23-1.73-7.14-.67-11-7.25-8.87-14.29.83-2.73,2.47-3.33,4.83-3.05,12.09,1.43,24.18,2.09,36.27,2.08,12.09.02,24.18-.65,36.27-2.08,2.36-.28,4,.31,4.83,3.05,2.13,7.05-1.73,13.63-8.87,14.29ZM264.02,259.67c.95,6.56-3.71,7.27-8.02,7.58-10.87.79-21.77,1.27-32.66,1.88-.03,0-.06,0-.09,0-.03,0-.06,0-.09,0-10.89-.61-21.79-1.09-32.66-1.88-4.31-.31-8.97-1.02-8.02-7.58.82-5.78,1.44-11.55,9.64-10.35,10.36,1.52,20.74,2.31,31.12,2.33,10.38-.02,20.76-.81,31.12-2.33,8.2-1.21,8.82,4.57,9.64,10.35Z" style="fill: #f6f5f5;"/>
          <path d="M232.92,60.32l-.15-.02c-.06-.01-.13-.01-.2-.01-.04,0-.2,0-.51.05.3,0,.57-.01.86-.02Z" style="fill: #fff;"/>
          <path d="M68.03,221.48c-.44.07-.83.11-1.2.13.11,0,.21.02.32.02.51,0,1.09-.05,1.73-.16,1.57-.26,3.21-.38,4.96-.4-1.95-.03-3.89.08-5.82.39Z" style="fill: #fff;"/>
          <polygon points="211.41 180.16 200.32 168.81 215.67 166.46 222.81 151.25 223.26 150.09 223.7 151.25 230.85 166.46 246.19 168.81 235.11 180.16 237.79 196.59 223.7 188.81 223.26 188.59 222.81 188.81 208.72 196.59 211.41 180.16" style="fill: #fff;"/>
          <polygon points="211.98 192.07 222.81 186.09 223.26 185.87 223.7 186.09 234.53 192.07 232.47 179.4 241.23 170.43 229.12 168.58 223.7 157.05 223.26 155.89 222.81 157.05 217.39 168.58 205.29 170.43 214.05 179.4 211.98 192.07" style="fill: #ec008c;"/>
        </g>
        <g style="mix-blend-mode: overlay;">
          <path d="M401.42,80.43c-51.73,3.94-112.57,50.16-140.44,77.15-.79-1.06-1.69-2.02-2.64-2.93,7.12-6.31,13.25-14.03,17.05-22.94,5.18-12.15,6.81-25.68,6.15-38.91-.25-4.92-7.55-4.94-7.31,0,.59,11.79-.53,24.13-5.15,35.03-3.59,8.47-9.43,15.87-16.28,21.74,2.62-13.6,6.23-27.75,7.6-30.26,7.29-13.37,5.05-25.72-4.44-37.01-7.66-9.11-11.43-15.06-3.81-20.04,10.7-6.98-.9-26.05-3.73-26.05s9.05,25.97-16.37,25.6c-.96-.48-8.8,2.39-8.8,2.39,0,0-7.84-2.87-8.8-2.39-25.42.37-14.66-25.6-17.49-25.6s-13.3,19.07-2.61,26.05c7.63,4.98,3.85,10.93-3.81,20.04-9.5,11.29-11.73,23.65-4.44,37.01,1.37,2.51,4.98,16.67,7.6,30.26-6.85-5.87-12.7-13.27-16.28-21.74-4.61-10.9-5.74-23.24-5.15-35.03.25-4.94-7.06-4.92-7.31,0-.66,13.22.96,26.75,6.15,38.91,3.8,8.91,9.94,16.62,17.05,22.94-.95.92-1.85,1.88-2.64,2.93-27.87-27-88.71-73.21-140.44-77.15-22.59-1.72.16,59.3,8.52,72.8,9.41,15.19,50.93,21.25,87.81,23.5-29.73,2.41-62.3,10.97-75.5,37.6,0,0-7.24,10.15,2.1,8.62,8.95-1.47,18.09,1.44,27.1,2.2,9.07.76,18.17,1.08,27.27.95,8.32-.11,17.16-.07,25.16-2.82.74-.25,1.46-.56,2.19-.87,6.24-1.47,12.23-3.29,17.79-5.29-.28.34-.56.69-.84,1.03-5.41,6.75-11.8,12.92-15.96,20.67-4.62,8.59-5.03,18.32-6.55,27.83-1.43,8.99-3.63,18.03-8.16,25.89-4.36,7.57-10.93,13.81-19.18,16.13-4.54,1.28-2.61,8.69,1.94,7.4,16.25-4.58,26.02-20.43,30.24-36.62,2.35-9.04,2.73-18.39,4.72-27.48,1.98-9.03,7.24-15.58,13.03-22.29,3.14-3.65,6.02-7.57,9.28-11.1,2.8-3.03,6.08-5.61,10.05-6.06.1,1.44.11,2.89-.07,4.33-12.21,16.93-17.43,35.37-18.44,57.49.52,6.88.95,14.53,1.71,22.15,2.66,26.78,9.18,52.41,24.63,74.27,10.68,15.11,26.24,26.81,27.89,47.72.11,1.38,1.44,3.04,1.44,3.04,0,0,1.33-1.66,1.44-3.04,1.65-20.91,17.21-32.61,27.89-47.72,15.45-21.86,21.97-47.49,24.63-74.27.76-7.62,1.19-15.28,1.71-22.15-1.02-22.12-6.23-40.57-18.44-57.49-.18-1.44-.17-2.88-.07-4.33,3.97.45,7.25,3.03,10.05,6.06,3.26,3.53,6.14,7.45,9.28,11.1,5.78,6.71,11.05,13.26,13.03,22.29,1.99,9.09,2.37,18.45,4.72,27.48,4.21,16.19,13.99,32.04,30.24,36.62,4.55,1.28,6.48-6.13,1.94-7.4-8.25-2.32-14.82-8.57-19.18-16.13-4.53-7.86-6.72-16.91-8.16-25.89-1.52-9.51-1.93-19.23-6.55-27.83-4.17-7.75-10.55-13.92-15.96-20.67-.28-.34-.56-.69-.84-1.03,5.56,2,11.55,3.83,17.79,5.29.72.3,1.45.61,2.19.87,8,2.75,16.83,2.7,25.16,2.82,9.1.13,18.2-.19,27.27-.95,9.01-.76,18.14-3.67,27.1-2.2,9.35,1.53,2.1-8.62,2.1-8.62-13.21-26.62-45.77-35.19-75.5-37.6,36.89-2.26,78.4-8.31,87.81-23.5,8.36-13.49,31.11-74.52,8.52-72.8ZM222.96,147.66c.1,0,.2.01.3.02.1,0,.2-.02.3-.02,16.08,0,29.11,13.69,29.11,30.59s-13.03,30.59-29.11,30.59c-.1,0-.2-.01-.3-.02-.1,0-.2.02-.3.02-16.08,0-29.11-13.69-29.11-30.59s13.03-30.59,29.11-30.59ZM251.46,228.16c-.83,2.41-3.42,2.47-5.47,2.51-7.58.13-15.15.05-22.73.04h-.01c-7.58.02-15.16.1-22.73-.04-2.05-.04-4.64-.1-5.47-2.51-.83-2.42,1.32-4.07,2.65-5.7,4.14-5.09,8.61-8.58,15.74-5.86,3.18,1.21,6.5,1.84,9.82,1.86,3.32-.02,6.64-.65,9.82-1.86,7.13-2.71,11.6.77,15.74,5.86,1.33,1.64,3.48,3.28,2.65,5.7ZM228.44,384.37c-1.75,1.72-3.47,2.58-5.18,2.69-1.71-.11-3.43-.97-5.18-2.69-3.9-3.84-11.52-8-9.6-12.4,2.33-5.32,10.43-.33,14.57-1.9.08,0,.14,0,.21,0,.07,0,.14,0,.21,0,4.14,1.56,12.25-3.43,14.57,1.9,1.92,4.39-5.7,8.56-9.6,12.4ZM256.86,337.7c-1.62,5.37-4.38,8.53-10.04,9.4-7.86,1.21-15.71.67-23.56,1.07-7.85-.4-15.7.15-23.56-1.07-5.66-.87-8.42-4.03-10.04-9.4-1.75-5.79-.56-8.27,5.68-7.81,9.29.68,18.61,1.17,27.92,1.38,9.31-.21,18.63-.7,27.92-1.38,6.24-.46,7.43,2.02,5.68,7.81ZM255.49,307.73c-10.72,1-21.42,2.6-32.23,1.73-10.81.87-21.51-.73-32.23-1.73-7.14-.67-11-7.25-8.87-14.29.83-2.73,2.47-3.33,4.83-3.05,12.09,1.43,24.18,2.09,36.27,2.08,12.09.02,24.18-.65,36.27-2.08,2.36-.28,4,.31,4.83,3.05,2.13,7.05-1.73,13.63-8.87,14.29ZM264.02,261.55c.95,6.56-3.71,7.27-8.02,7.58-10.87.79-21.77,1.27-32.66,1.88-.03,0-.06,0-.09,0-.03,0-.06,0-.09,0-10.89-.61-21.79-1.09-32.66-1.88-4.31-.31-8.97-1.02-8.02-7.58.82-5.78,1.44-11.55,9.64-10.35,10.36,1.52,20.74,2.31,31.12,2.33,10.38-.02,20.76-.81,31.12-2.33,8.2-1.21,8.82,4.57,9.64,10.35Z" style="fill: #f6f5f5;"/>
          <path d="M232.92,62.2l-.15-.02c-.06-.01-.13-.01-.2-.01-.04,0-.2,0-.51.05.3,0,.57-.01.86-.02Z" style="fill: #fff;"/>
          <path d="M68.03,223.35c-.44.07-.83.11-1.2.13.11,0,.21.02.32.02.51,0,1.09-.05,1.73-.16,1.57-.26,3.21-.38,4.96-.4-1.95-.03-3.89.08-5.82.39Z" style="fill: #fff;"/>
          <polygon points="211.41 182.04 200.32 170.68 215.67 168.34 222.81 153.13 223.26 151.97 223.7 153.13 230.85 168.34 246.19 170.68 235.11 182.04 237.79 198.47 223.7 190.69 223.26 190.47 222.81 190.69 208.72 198.47 211.41 182.04" style="fill: #fff;"/>
          <polygon points="211.98 193.95 222.81 187.97 223.26 187.74 223.7 187.97 234.53 193.95 232.47 181.28 241.23 172.3 229.12 170.45 223.7 158.92 223.26 157.76 222.81 158.92 217.39 170.45 205.29 172.3 214.05 181.28 211.98 193.95" style="fill: #ec008c;"/>
        </g>
        <g style="opacity: .67;">
          <path d="M400.42,79.91c-51.73,3.94-112.57,50.16-140.44,77.15-.79-1.06-1.69-2.02-2.64-2.93,7.12-6.31,13.25-14.03,17.05-22.94,5.18-12.15,6.81-25.68,6.15-38.91-.25-4.92-7.55-4.94-7.31,0,.59,11.79-.53,24.13-5.15,35.03-3.59,8.47-9.43,15.87-16.28,21.74,2.62-13.6,6.23-27.75,7.6-30.26,7.29-13.37,5.05-25.72-4.44-37.01-7.66-9.11-11.43-15.06-3.81-20.04,10.7-6.98-.9-26.05-3.73-26.05s9.05,25.97-16.37,25.6c-.96-.48-8.8,2.39-8.8,2.39,0,0-7.84-2.87-8.8-2.39-25.42.37-14.66-25.6-17.49-25.6s-13.3,19.07-2.61,26.05c7.63,4.98,3.85,10.93-3.81,20.04-9.5,11.29-11.73,23.65-4.44,37.01,1.37,2.51,4.98,16.67,7.6,30.26-6.85-5.87-12.7-13.27-16.28-21.74-4.61-10.9-5.74-23.24-5.15-35.03.25-4.94-7.06-4.92-7.31,0-.66,13.22.96,26.75,6.15,38.91,3.8,8.91,9.94,16.62,17.05,22.94-.95.92-1.85,1.88-2.64,2.93-27.87-27-88.71-73.21-140.44-77.15-22.59-1.72.16,59.3,8.52,72.8,9.41,15.19,50.93,21.25,87.81,23.5-29.73,2.41-62.3,10.97-75.5,37.6,0,0-7.24,10.15,2.1,8.62,8.95-1.47,18.09,1.44,27.1,2.2,9.07.76,18.17,1.08,27.27.95,8.32-.11,17.16-.07,25.16-2.82.74-.25,1.46-.56,2.19-.87,6.24-1.47,12.23-3.29,17.79-5.29-.28.34-.56.69-.84,1.03-5.41,6.75-11.8,12.92-15.96,20.67-4.62,8.59-5.03,18.32-6.55,27.83-1.43,8.99-3.63,18.03-8.16,25.89-4.36,7.57-10.93,13.81-19.18,16.13-4.54,1.28-2.61,8.69,1.94,7.4,16.25-4.58,26.02-20.43,30.24-36.62,2.35-9.04,2.73-18.39,4.72-27.48,1.98-9.03,7.24-15.58,13.03-22.29,3.14-3.65,6.02-7.57,9.28-11.1,2.8-3.03,6.08-5.61,10.05-6.06.1,1.44.11,2.89-.07,4.33-12.21,16.93-17.43,35.37-18.44,57.49.52,6.88.95,14.53,1.71,22.15,2.66,26.78,9.18,52.41,24.63,74.27,10.68,15.11,26.24,26.81,27.89,47.72.11,1.38,1.44,3.04,1.44,3.04,0,0,1.33-1.66,1.44-3.04,1.65-20.91,17.21-32.61,27.89-47.72,15.45-21.86,21.97-47.49,24.63-74.27.76-7.62,1.19-15.28,1.71-22.15-1.02-22.12-6.23-40.57-18.44-57.49-.18-1.44-.17-2.88-.07-4.33,3.97.45,7.25,3.03,10.05,6.06,3.26,3.53,6.14,7.45,9.28,11.1,5.78,6.71,11.05,13.26,13.03,22.29,1.99,9.09,2.37,18.45,4.72,27.48,4.21,16.19,13.99,32.04,30.24,36.62,4.55,1.28,6.48-6.13,1.94-7.4-8.25-2.32-14.82-8.57-19.18-16.13-4.53-7.86-6.72-16.91-8.16-25.89-1.52-9.51-1.93-19.23-6.55-27.83-4.17-7.75-10.55-13.92-15.96-20.67-.28-.34-.56-.69-.84-1.03,5.56,2,11.55,3.83,17.79,5.29.72.3,1.45.61,2.19.87,8,2.75,16.83,2.7,25.16,2.82,9.1.13,18.2-.19,27.27-.95,9.01-.76,18.14-3.67,27.1-2.2,9.35,1.53,2.1-8.62,2.1-8.62-13.21-26.62-45.77-35.19-75.5-37.6,36.89-2.26,78.4-8.31,87.81-23.5,8.36-13.49,31.11-74.52,8.52-72.8ZM221.96,147.14c.1,0,.2.01.3.02.1,0,.2-.02.3-.02,16.08,0,29.11,13.69,29.11,30.59s-13.03,30.59-29.11,30.59c-.1,0-.2-.01-.3-.02-.1,0-.2.02-.3.02-16.08,0-29.11-13.69-29.11-30.59s13.03-30.59,29.11-30.59ZM250.46,227.64c-.83,2.41-3.42,2.47-5.47,2.51-7.58.13-15.15.05-22.73.04h-.01c-7.58.02-15.16.1-22.73-.04-2.05-.04-4.64-.1-5.47-2.51-.83-2.42,1.32-4.07,2.65-5.7,4.14-5.09,8.61-8.58,15.74-5.86,3.18,1.21,6.5,1.84,9.82,1.86,3.32-.02,6.64-.65,9.82-1.86,7.13-2.71,11.6.77,15.74,5.86,1.33,1.64,3.48,3.28,2.65,5.7ZM227.44,383.85c-1.75,1.72-3.47,2.58-5.18,2.69-1.71-.11-3.43-.97-5.18-2.69-3.9-3.84-11.52-8-9.6-12.4,2.33-5.32,10.43-.33,14.57-1.9.08,0,.14,0,.21,0,.07,0,.14,0,.21,0,4.14,1.56,12.25-3.43,14.57,1.9,1.92,4.39-5.7,8.56-9.6,12.4ZM255.86,337.19c-1.62,5.37-4.38,8.53-10.04,9.4-7.86,1.21-15.71.67-23.56,1.07-7.85-.4-15.7.15-23.56-1.07-5.66-.87-8.42-4.03-10.04-9.4-1.75-5.79-.56-8.27,5.68-7.81,9.29.68,18.61,1.17,27.92,1.38,9.31-.21,18.63-.7,27.92-1.38,6.24-.46,7.43,2.02,5.68,7.81ZM254.49,307.21c-10.72,1-21.42,2.6-32.23,1.73-10.81.87-21.51-.73-32.23-1.73-7.14-.67-11-7.25-8.87-14.29.83-2.73,2.47-3.33,4.83-3.05,12.09,1.43,24.18,2.09,36.27,2.08,12.09.02,24.18-.65,36.27-2.08,2.36-.28,4,.31,4.83,3.05,2.13,7.05-1.73,13.63-8.87,14.29ZM263.02,261.03c.95,6.56-3.71,7.27-8.02,7.58-10.87.79-21.77,1.27-32.66,1.88-.03,0-.06,0-.09,0-.03,0-.06,0-.09,0-10.89-.61-21.79-1.09-32.66-1.88-4.31-.31-8.97-1.02-8.02-7.58.82-5.78,1.44-11.55,9.64-10.35,10.36,1.52,20.74,2.31,31.12,2.33,10.38-.02,20.76-.81,31.12-2.33,8.2-1.21,8.82,4.57,9.64,10.35Z" style="fill: #f6f5f5;"/>
          <path d="M231.92,61.68l-.15-.02c-.06-.01-.13-.01-.2-.01-.04,0-.2,0-.51.05.3,0,.57-.01.86-.02Z" style="fill: #fff;"/>
          <path d="M67.03,222.83c-.44.07-.83.11-1.2.13.11,0,.21.02.32.02.51,0,1.09-.05,1.73-.16,1.57-.26,3.21-.38,4.96-.4-1.95-.03-3.89.08-5.82.39Z" style="fill: #fff;"/>
          <polygon points="210.41 181.52 199.32 170.16 214.67 167.82 221.81 152.61 222.26 151.45 222.7 152.61 229.85 167.82 245.19 170.16 234.11 181.52 236.79 197.95 222.7 190.17 222.26 189.95 221.81 190.17 207.72 197.95 210.41 181.52" style="fill: #fff;"/>
          <polygon points="210.98 193.43 221.81 187.45 222.26 187.23 222.7 187.45 233.53 193.43 231.47 180.76 240.23 171.78 228.12 169.94 222.7 158.41 222.26 157.24 221.81 158.41 216.39 169.94 204.29 171.78 213.05 180.76 210.98 193.43" style="fill: #ec008c;"/>
        </g>
      </g>
    </g>
  </g>
</svg>